<svg width="10" height="10" viewBox="0 0 10 10" fill="none" xmlns="http://www.w3.org/2000/svg">
<path d="M9.94811 5.01529C9.94811 5.04904 9.93133 5.28528 9.89793 5.724H3.0743C3.19732 6.28649 3.48785 6.73084 3.94622 7.05707C4.40442 7.38331 4.97439 7.54644 5.65615 7.54644C6.1256 7.54644 6.53915 7.47894 6.89681 7.34394C7.26572 7.19769 7.6066 6.97271 7.91962 6.66897L9.311 8.18765C8.46157 9.16636 7.22108 9.65571 5.58919 9.65571C4.57209 9.65571 3.67231 9.45884 2.89001 9.06512C2.10755 8.66013 1.50401 8.10328 1.07921 7.39456C0.654578 6.68583 0.442261 5.8815 0.442261 4.98154C0.442261 4.09283 0.64904 3.29412 1.06259 2.58539C1.48722 1.86542 2.06291 1.30858 2.78931 0.914835C3.52696 0.509866 4.34852 0.307373 5.25384 0.307373C6.13684 0.307373 6.93592 0.498605 7.65124 0.881086C8.36657 1.26358 8.92547 1.81481 9.32778 2.53478C9.74133 3.24349 9.94811 4.07032 9.94811 5.01529ZM5.27063 2.29854C4.67833 2.29854 4.18086 2.46728 3.77855 2.80475C3.37607 3.14224 3.13019 3.60348 3.0409 4.18845H7.48357C7.39428 3.61472 7.1484 3.15912 6.74593 2.82163C6.34362 2.4729 5.85185 2.29854 5.27063 2.29854Z" fill="#FFD22E"/>
</svg>
