<svg width="27" height="15" viewBox="0 0 27 15" fill="none" xmlns="http://www.w3.org/2000/svg">
<path d="M12.2884 14L8.96844 9.3C10.9284 8.6 12.0484 7.04 12.0484 4.88C12.0484 1.84 9.84844 -9.53674e-07 6.20844 -9.53674e-07H0.748438V14H2.74844V9.74H6.20844C6.50844 9.74 6.80844 9.72 7.08844 9.7L10.1084 14H12.2884ZM6.14844 8.04H2.74844V1.74H6.14844C8.70844 1.74 10.0484 2.88 10.0484 4.88C10.0484 6.88 8.70844 8.04 6.14844 8.04ZM21.0797 14.16C24.7797 14.16 26.9997 12.02 26.9997 7.96V-9.53674e-07H25.0597V7.88C25.0597 10.98 23.6197 12.38 21.0997 12.38C18.5797 12.38 17.1597 10.98 17.1597 7.88V-9.53674e-07H15.1597V7.96C15.1597 12.02 17.3997 14.16 21.0797 14.16Z" fill="white"/>
</svg>
